<svg width="364" height="539" viewBox="0 0 364 539" fill="none" xmlns="http://www.w3.org/2000/svg"  preserveAspectRatio = "none">
<path fill-rule="evenodd" clip-rule="evenodd" d="M0.505615 538.92V528.804L8.07714 520.962L65.4917 461.449L79.1748 447.293L73.4707 441.352L47.3268 414.261L36.9033 403.465L10.7255 376.374L0.505615 365.782V325.994L85.3882 413.955L103.247 432.457L0.505615 538.92Z" fill="#625F61"/>
<path fill-rule="evenodd" clip-rule="evenodd" d="M99.1089 165.228L61.9643 128.292L24.8197 91.3559L0 66.6752V16.8385C0 7.57055 8.52221 0 18.9458 0H283.542L168.848 114.101L131.908 150.868L108.276 174.36L99.3126 165.432L99.1089 165.228Z" fill="#625F61"/>
<path fill-rule="evenodd" clip-rule="evenodd" d="M322.304 318.898L311.881 329.694L300.541 341.406V252.155L330.555 221.092V310.309L322.304 318.898Z" fill="#F7B25E"/>
<path d="M330.557 310.309V221.092L364 186.431V275.682L330.557 310.309Z" fill="#F8A031"/>
<path d="M264.584 121.623L264.448 117.888L267.674 120.706L267.81 124.44L264.584 121.623ZM258.948 116.734L258.812 113L262.038 115.817L262.173 119.552L258.948 116.734ZM253.312 111.845L253.176 108.111L256.401 110.929L256.537 114.663L253.312 111.845ZM247.675 106.957L247.54 103.222L250.765 106.04L250.901 109.775L247.675 106.957ZM242.039 102.068L241.903 98.3338L245.129 101.152L245.265 104.886L242.039 102.068ZM236.403 97.1796L236.267 93.4452L239.493 96.263L239.629 99.9973L236.403 97.1796ZM230.767 92.291L230.631 88.5566L233.857 91.3744L233.992 95.1087L230.767 92.291ZM225.131 87.4024L224.995 83.668L228.22 86.4857L228.356 90.2201L225.131 87.4024ZM219.562 82.5477L219.427 78.8133L222.584 81.5632L222.72 85.2975L219.562 82.5477ZM269.881 120.638L314.733 75.8938L314.869 79.696L270.051 124.406L269.915 120.638H269.881ZM219.8 76.1993L265.297 30.8099L314.122 73.3137L268.624 118.703L219.8 76.1993ZM268.217 127.903L268.523 128.073C268.964 128.209 269.439 128.107 269.779 127.801L316.838 80.8503C317.042 80.6466 317.177 80.375 317.143 80.0694L316.906 73.2458C316.906 73.0421 316.838 72.8723 316.736 72.7365L316.668 72.6347L316.532 72.4989L266.01 28.5014C265.535 28.094 264.822 28.128 264.38 28.5693L217.287 75.5543L217.05 75.9277C216.982 76.0635 216.982 76.1993 216.982 76.3351L217.22 83.1248C217.22 83.4304 217.355 83.668 217.593 83.8717L268.115 127.869L268.217 127.937V127.903Z" fill="#CF4027"/>
<path d="M302.576 73.6533L268.351 107.772L231.648 75.8261L265.873 41.7076L302.576 73.6533ZM264.956 39.4331L229.169 75.1471C228.728 75.5884 228.762 76.2674 229.237 76.6748L267.638 110.114C268.113 110.522 268.826 110.488 269.268 110.046L305.054 74.3323C305.496 73.891 305.462 73.212 304.986 72.8046L266.586 39.3652C266.11 38.9578 265.397 38.9917 264.956 39.4331Z" fill="#CF4027"/>
<path d="M0 0H29V28H0V0Z" fill="#625F61"/>
</svg>
