<svg width="200" height="206" viewBox="0 0 200 206" fill="none" xmlns="http://www.w3.org/2000/svg">
<path d="M14.6736 23.0412V19.85C15.047 20.1895 15.4884 20.4611 15.9976 20.7327C16.5068 21.0043 17.05 21.208 17.5932 21.3777C18.1703 21.5475 18.7135 21.6832 19.2906 21.7851C19.8677 21.8869 20.377 21.9209 20.8523 21.9209C22.5157 21.9209 23.7718 21.6154 24.5866 21.0043C25.4014 20.3932 25.8088 19.5105 25.8088 18.3563C25.8088 17.7452 25.673 17.202 25.4014 16.7267C25.1298 16.2515 24.7563 15.8441 24.2811 15.4706C23.8058 15.0972 23.2287 14.7238 22.5497 14.3843C21.8707 14.0448 21.1917 13.6714 20.4109 13.2979C19.5962 12.8905 18.8493 12.4832 18.1703 12.0418C17.4574 11.6344 16.8803 11.1592 16.3371 10.6499C15.8278 10.1407 15.4205 9.56356 15.1149 8.91854C14.8094 8.27351 14.6736 7.52664 14.6736 6.67793C14.6736 5.62552 14.9112 4.7089 15.3526 3.92808C15.8279 3.14726 16.4389 2.50224 17.1858 1.99301C17.9327 1.48377 18.7814 1.11035 19.7659 0.872705C20.7165 0.635064 21.701 0.499268 22.6855 0.499268C24.96 0.499268 26.6235 0.770863 27.6759 1.31404V4.36942C26.318 3.41885 24.5527 2.94358 22.4139 2.94358C21.8368 2.94358 21.2257 3.01147 20.6486 3.11332C20.0714 3.24911 19.5283 3.45281 19.0869 3.7244C18.6116 3.99598 18.2382 4.36942 17.9666 4.81075C17.6611 5.25208 17.5253 5.79527 17.5253 6.40634C17.5253 6.98347 17.6271 7.49269 17.8648 7.93402C18.0685 8.37536 18.408 8.7488 18.8493 9.12224C19.2906 9.46172 19.7998 9.83516 20.4109 10.1407C21.022 10.4802 21.7349 10.8536 22.5497 11.2271C23.3645 11.6344 24.1453 12.0758 24.8921 12.5171C25.639 12.9584 26.284 13.4677 26.8272 14.0108C27.4043 14.554 27.8457 15.1651 28.1512 15.8441C28.4907 16.523 28.6265 17.2699 28.6265 18.1186C28.6265 19.2729 28.4228 20.2235 27.9475 21.0043C27.5062 21.7851 26.8951 22.4301 26.1482 22.9394C25.4014 23.4486 24.5187 23.7881 23.5342 24.0257C22.5497 24.2294 21.4973 24.3652 20.4109 24.3652C20.0375 24.3652 19.5962 24.3312 19.053 24.2633C18.5098 24.1954 17.9666 24.1275 17.4234 23.9918C16.8803 23.8899 16.3371 23.7541 15.8278 23.5844C15.3186 23.4146 14.9112 23.2449 14.6396 23.0412H14.6736Z" fill="#F8A031"/>
<path d="M46.2446 23.9923H43.5966V21.3783H43.5287C42.4423 23.3813 40.7449 24.3658 38.4364 24.3658C34.4983 24.3658 32.5293 22.0233 32.5293 17.3384V7.49329H35.1433V16.931C35.1433 20.4277 36.4673 22.1591 39.1493 22.1591C40.4393 22.1591 41.4917 21.6838 42.3405 20.7332C43.1552 19.7827 43.5966 18.5266 43.5966 16.9989V7.49329H46.2446V23.9923Z" fill="#F8A031"/>
<path d="M54.2884 21.5814H54.2205V31.5623H51.5725V7.49272H54.2205V10.3784H54.2884C55.5784 8.20564 57.4796 7.08533 59.9918 7.08533C62.1305 7.08533 63.7601 7.8322 64.9822 9.29199C66.1704 10.7518 66.7815 12.7548 66.7815 15.233C66.7815 17.9829 66.1025 20.1895 64.7785 21.853C63.4206 23.5165 61.5874 24.3312 59.2789 24.3312C57.1401 24.3312 55.5106 23.4146 54.3223 21.5475L54.2884 21.5814ZM54.2205 14.9275V17.236C54.2205 18.5939 54.6618 19.7482 55.5445 20.6987C56.4272 21.6493 57.5475 22.1246 58.9054 22.1246C60.501 22.1246 61.7571 21.5135 62.6737 20.2914C63.5903 19.0692 64.0317 17.3718 64.0317 15.1651C64.0317 13.3319 63.6243 11.906 62.7416 10.8536C61.8929 9.80122 60.7386 9.29199 59.3128 9.29199C57.7851 9.29199 56.529 9.83518 55.6124 10.8876C54.6618 11.9739 54.2205 13.2979 54.2205 14.8935V14.9275Z" fill="#F8A031"/>
<path d="M77.8835 24.3652C75.4392 24.3652 73.5041 23.5844 72.0443 22.0567C70.5845 20.529 69.8716 18.4581 69.8716 15.912C69.8716 13.1282 70.6185 10.9894 72.1462 9.42779C73.6738 7.86615 75.7108 7.08533 78.2909 7.08533C80.7352 7.08533 82.6702 7.8322 84.0621 9.35989C85.454 10.8876 86.133 12.9584 86.133 15.6404C86.133 18.2884 85.3861 20.3932 83.8924 21.9548C82.3986 23.5504 80.3957 24.3312 77.9174 24.3312L77.8835 24.3652ZM78.0872 9.32594C76.3897 9.32594 75.0657 9.90307 74.0473 11.0573C73.0628 12.2116 72.5535 13.8072 72.5535 15.8441C72.5535 17.8131 73.0628 19.3408 74.0473 20.4611C75.0657 21.5814 76.3897 22.1585 78.0532 22.1585C79.7506 22.1585 81.0746 21.6153 81.9913 20.495C82.9079 19.3747 83.3492 17.8131 83.3492 15.7762C83.3492 13.7053 82.9079 12.1097 81.9913 11.0234C81.0746 9.90306 79.7506 9.35989 78.0532 9.35989L78.0872 9.32594Z" fill="#F8A031"/>
<path d="M98.9335 10.1406C98.4582 9.80108 97.8132 9.59738 96.9305 9.59738C95.8102 9.59738 94.8597 10.1406 94.1128 11.193C93.3659 12.2454 92.9925 13.7052 92.9925 15.5384V23.9577H90.3445V7.45861H92.9925V10.8535H93.0604C93.4338 9.69923 94.0109 8.78262 94.7918 8.13759C95.5726 7.49257 96.4213 7.15308 97.3719 7.15308C98.0508 7.15308 98.594 7.22097 98.9335 7.39072V10.1406Z" fill="#F8A031"/>
<path d="M110.407 23.8222C109.795 24.1617 108.947 24.3314 107.928 24.3314C105.043 24.3314 103.583 22.7358 103.583 19.5107V9.73348H100.731V7.49287H103.583V3.45296L106.231 2.60425V7.49287H110.373V9.73348H106.231V19.0354C106.231 20.1557 106.401 20.9365 106.808 21.4118C107.181 21.8871 107.793 22.1247 108.675 22.1247C109.354 22.1247 109.897 21.955 110.407 21.5816V23.8561V23.8222Z" fill="#F8A031"/>
<path d="M126.943 16.3873H115.298C115.332 18.2205 115.841 19.6463 116.792 20.6308C117.742 21.6154 119.033 22.1246 120.696 22.1246C122.563 22.1246 124.261 21.5135 125.822 20.2914V22.7696C124.362 23.822 122.461 24.3313 120.085 24.3313C117.742 24.3313 115.909 23.5844 114.585 22.0906C113.261 20.5969 112.582 18.4921 112.582 15.7762C112.582 13.1961 113.329 11.1252 114.755 9.49569C116.215 7.86616 118.014 7.08533 120.187 7.08533C122.359 7.08533 124.023 7.79826 125.211 9.19015C126.399 10.582 126.977 12.5171 126.977 14.9954V16.3873H126.943ZM124.227 14.1467C124.227 12.619 123.853 11.4308 123.14 10.582C122.427 9.73333 121.409 9.32594 120.119 9.32594C118.863 9.32594 117.81 9.76728 116.962 10.6499C116.079 11.5326 115.57 12.7208 115.366 14.1467H124.261H124.227Z" fill="#F8A031"/>
<path d="M142.658 21.5814H142.59V31.5623H139.942V7.49272H142.59V10.3784H142.658C143.948 8.20564 145.849 7.08533 148.361 7.08533C150.5 7.08533 152.129 7.8322 153.351 9.29199C154.54 10.7518 155.151 12.7548 155.151 15.233C155.151 17.9829 154.472 20.1895 153.148 21.853C151.79 23.5165 149.957 24.3312 147.648 24.3312C145.509 24.3312 143.88 23.4146 142.691 21.5475L142.658 21.5814ZM142.59 14.9275V17.236C142.59 18.5939 143.031 19.7482 143.914 20.6987C144.796 21.6493 145.917 22.1246 147.275 22.1246C148.87 22.1246 150.126 21.5135 151.043 20.2914C151.959 19.0692 152.401 17.3718 152.401 15.1651C152.401 13.3319 151.993 11.906 151.111 10.8536C150.262 9.80122 149.108 9.29199 147.682 9.29199C146.154 9.29199 144.898 9.83518 143.982 10.8876C143.031 11.9739 142.59 13.2979 142.59 14.8935V14.9275Z" fill="#F8A031"/>
<path d="M170.735 23.9923H168.087V21.4123H168.019C166.865 23.3813 165.167 24.3658 162.961 24.3658C161.331 24.3658 160.041 23.9245 159.09 23.0757C158.174 22.1931 157.698 21.0388 157.698 19.613C157.698 16.5237 159.498 14.7244 163.13 14.2491L168.087 13.5701C168.087 10.7524 166.966 9.36048 164.692 9.36048C162.723 9.36048 160.924 10.0395 159.328 11.3974V8.68151C160.958 7.66305 162.825 7.11987 164.93 7.11987C168.8 7.11987 170.735 9.15678 170.735 13.2646V23.9923ZM168.087 15.641L164.115 16.1842C162.893 16.3539 161.976 16.6594 161.331 17.1008C160.72 17.5421 160.38 18.289 160.38 19.4093C160.38 20.2241 160.652 20.8691 161.229 21.3783C161.806 21.8875 162.553 22.1591 163.538 22.1591C164.862 22.1591 165.914 21.6838 166.797 20.8012C167.645 19.8846 168.087 18.7303 168.087 17.3045V15.6749V15.641Z" fill="#F8A031"/>
<path d="M184.316 10.1406C183.84 9.80108 183.195 9.59738 182.313 9.59738C181.192 9.59738 180.242 10.1406 179.495 11.193C178.748 12.2454 178.375 13.7052 178.375 15.5384V23.9577H175.727V7.45861H178.375V10.8535H178.442C178.816 9.69923 179.393 8.78262 180.174 8.13759C180.955 7.49257 181.803 7.15308 182.754 7.15308C183.433 7.15308 183.976 7.22097 184.316 7.39072V10.1406Z" fill="#F8A031"/>
<path d="M199.017 23.9923H196.369V21.4123H196.301C195.147 23.3813 193.449 24.3658 191.243 24.3658C189.613 24.3658 188.323 23.9245 187.372 23.0757C186.456 22.1931 185.98 21.0388 185.98 19.613C185.98 16.5237 187.78 14.7244 191.412 14.2491L196.369 13.5701C196.369 10.7524 195.248 9.36048 192.974 9.36048C191.005 9.36048 189.206 10.0395 187.61 11.3974V8.68151C189.24 7.66305 191.107 7.11987 193.212 7.11987C197.082 7.11987 199.017 9.15678 199.017 13.2646V23.9923ZM196.369 15.641L192.397 16.1842C191.175 16.3539 190.258 16.6594 189.613 17.1008C189.002 17.5421 188.662 18.289 188.662 19.4093C188.662 20.2241 188.934 20.8691 189.511 21.3783C190.088 21.8875 190.835 22.1591 191.82 22.1591C193.144 22.1591 194.196 21.6838 195.079 20.8012C195.927 19.8846 196.369 18.7303 196.369 17.3045V15.6749V15.641Z" fill="#F8A031"/>
<path d="M34.1918 57.6355C31.7475 57.6355 29.8124 56.8547 28.3526 55.327C26.8929 53.7993 26.1799 51.7284 26.1799 49.1822C26.1799 46.3984 26.9268 44.2597 28.4545 42.698C29.9822 41.1364 32.0191 40.3556 34.5992 40.3556C37.0435 40.3556 38.9786 41.1025 40.3705 42.6302C41.7624 44.1579 42.4413 46.2287 42.4413 48.9107C42.4413 51.5587 41.6945 53.6635 40.2007 55.2251C38.707 56.8207 36.704 57.6015 34.2258 57.6015L34.1918 57.6355ZM34.3955 42.5962C32.6981 42.5962 31.3741 43.1733 30.3556 44.3276C29.3711 45.4819 28.8619 47.0774 28.8619 49.1144C28.8619 51.0834 29.3711 52.6111 30.3556 53.7314C31.3741 54.8517 32.6981 55.4288 34.3616 55.4288C36.059 55.4288 37.383 54.8856 38.2996 53.7653C39.2162 52.645 39.6576 51.0834 39.6576 49.0465C39.6576 46.9756 39.2162 45.38 38.2996 44.2936C37.383 43.1733 36.059 42.6302 34.3616 42.6302L34.3955 42.5962Z" fill="#F8A031"/>
<path d="M72.9982 33.6676H62.8136V40.7628H72.1494V46.0588H62.8136V57.2619H56.2954V28.3716H72.9982V33.6676Z" fill="#CF4027"/>
<path d="M96.7257 57.2616H90.3773V54.1044H90.2755C88.7138 56.5148 86.609 57.7369 83.961 57.7369C79.1743 57.7369 76.7979 54.8513 76.7979 49.0461V36.5869H83.1462V48.4689C83.1462 51.3885 84.3005 52.8483 86.609 52.8483C87.7633 52.8483 88.6459 52.4409 89.3589 51.6601C90.0378 50.8793 90.3773 49.7929 90.3773 48.401V36.5869H96.7257V57.1937V57.2616Z" fill="#CF4027"/>
<path d="M114.55 57.0232C113.6 57.5325 112.208 57.7701 110.307 57.7701C105.826 57.7701 103.585 55.4276 103.585 50.7767V41.3389H100.258V36.654H103.585V32.2067L109.933 30.4075V36.654H114.55V41.3389H109.933V49.6903C109.933 51.8291 110.782 52.9154 112.48 52.9154C113.159 52.9154 113.838 52.7117 114.55 52.3383V57.0572V57.0232Z" fill="#CF4027"/>
<path d="M137.701 57.2616H131.353V54.1044H131.251C129.689 56.5148 127.584 57.7369 124.936 57.7369C120.15 57.7369 117.773 54.8513 117.773 49.0461V36.5869H124.122V48.4689C124.122 51.3885 125.276 52.8483 127.584 52.8483C128.739 52.8483 129.621 52.4409 130.334 51.6601C131.013 50.8793 131.353 49.7929 131.353 48.401V36.5869H137.701V57.1937V57.2616Z" fill="#CF4027"/>
<path d="M156.545 42.3926C155.765 41.9852 154.882 41.7815 153.864 41.7815C152.472 41.7815 151.385 42.2908 150.604 43.3092C149.824 44.3277 149.45 45.6856 149.45 47.451V57.2961H143.102V36.6892H149.45V40.5254H149.518C150.537 37.7416 152.336 36.3158 154.95 36.3158C155.629 36.3158 156.138 36.3837 156.512 36.5534V42.4265L156.545 42.3926Z" fill="#CF4027"/>
<path d="M169.175 57.7711C165.746 57.7711 163.03 56.8205 161.061 54.8854C159.092 52.9503 158.108 50.3363 158.108 47.0433C158.108 43.6484 159.126 40.9665 161.163 39.0314C163.2 37.0963 165.984 36.1458 169.447 36.1458C172.876 36.1458 175.558 37.0963 177.493 39.0314C179.428 40.9665 180.412 43.5126 180.412 46.6698C180.412 50.0986 179.394 52.8145 177.391 54.7836C175.388 56.7865 172.638 57.7711 169.141 57.7711H169.175ZM169.345 41.0344C167.851 41.0344 166.663 41.5436 165.848 42.596C165.033 43.6484 164.592 45.1082 164.592 46.9754C164.592 50.9474 166.188 52.9164 169.379 52.9164C172.434 52.9164 173.962 50.8795 173.962 46.8056C173.962 42.9355 172.434 41.0344 169.345 41.0344Z" fill="#CF4027"/>
<path d="M14.8094 112.733V105.061C16.2013 106.215 17.695 107.098 19.3246 107.675C20.9541 108.252 22.5836 108.557 24.2471 108.557C25.2316 108.557 26.0803 108.455 26.7933 108.286C27.5062 108.116 28.1173 107.878 28.6265 107.539C29.1018 107.233 29.4752 106.86 29.7129 106.453C29.9505 106.045 30.0863 105.57 30.0863 105.061C30.0863 104.382 29.8826 103.804 29.5092 103.261C29.1357 102.718 28.5925 102.243 27.9475 101.802C27.3025 101.36 26.4877 100.919 25.5711 100.511C24.6545 100.104 23.67 99.6628 22.6176 99.2214C19.9356 98.1011 17.9327 96.7432 16.6087 95.1137C15.2847 93.5181 14.6396 91.549 14.6396 89.2745C14.6396 87.4752 14.9791 85.9475 15.726 84.6574C16.4389 83.3674 17.4234 82.315 18.6456 81.4663C19.9017 80.6515 21.3275 80.0404 22.9231 79.633C24.5527 79.2256 26.284 79.0559 28.0833 79.0559C29.8826 79.0559 31.4442 79.1577 32.8361 79.3954C34.1941 79.5991 35.4841 79.9386 36.6384 80.3799V87.5431C36.0613 87.1357 35.4502 86.7962 34.7712 86.4907C34.0922 86.1851 33.3793 85.9475 32.6664 85.7438C31.9535 85.5401 31.2405 85.4043 30.5276 85.3025C29.8147 85.2006 29.1357 85.1667 28.5247 85.1667C27.642 85.1667 26.8612 85.2346 26.1482 85.4043C25.4353 85.5741 24.8242 85.8117 24.315 86.1172C23.8397 86.4228 23.4324 86.7623 23.1608 87.2036C22.8892 87.6449 22.7534 88.0863 22.7534 88.6294C22.7534 89.2066 22.8892 89.7158 23.1947 90.1571C23.5002 90.5985 23.9416 91.0398 24.4848 91.4472C25.0279 91.8546 25.7069 92.2619 26.5217 92.6354C27.3025 93.0428 28.2191 93.4162 29.2376 93.8575C30.5955 94.4347 31.8516 95.0457 32.938 95.6908C34.0243 96.3358 34.9749 97.0827 35.7557 97.8635C36.5365 98.6783 37.1476 99.5949 37.555 100.647C37.9624 101.7 38.1661 102.888 38.1661 104.28C38.1661 106.215 37.7926 107.81 37.0797 109.1C36.3668 110.391 35.3823 111.443 34.1262 112.258C32.8701 113.072 31.4442 113.65 29.7808 113.989C28.1173 114.329 26.3859 114.498 24.5527 114.498C22.6855 114.498 20.8862 114.329 19.1888 114.023C17.4913 113.718 15.9976 113.208 14.7754 112.597L14.8094 112.733Z" fill="#F7B25E"/>
<path d="M51.5733 114.057H43.833V79.735H51.5733V114.057Z" fill="#F7B25E"/>
<path d="M57.7862 112.733V105.061C59.1781 106.215 60.6718 107.098 62.3014 107.675C63.9309 108.252 65.5605 108.557 67.2239 108.557C68.2084 108.557 69.0572 108.455 69.7701 108.286C70.483 108.116 71.0941 107.878 71.6033 107.539C72.0786 107.233 72.452 106.86 72.6897 106.453C72.9273 106.045 73.0631 105.57 73.0631 105.061C73.0631 104.382 72.8594 103.804 72.486 103.261C72.1125 102.718 71.5694 102.243 70.9243 101.802C70.2793 101.36 69.4645 100.919 68.5479 100.511C67.6313 100.104 66.6468 99.6628 65.5944 99.2214C62.9124 98.1011 60.9095 96.7432 59.5855 95.1137C58.2615 93.5181 57.6165 91.549 57.6165 89.2745C57.6165 87.4752 57.9559 85.9475 58.7028 84.6574C59.4157 83.3674 60.4002 82.315 61.6224 81.4663C62.8785 80.6515 64.3043 80.0404 65.8999 79.633C67.5295 79.2256 69.2608 79.0559 71.0601 79.0559C72.8594 79.0559 74.421 79.1577 75.8129 79.3954C77.1709 79.5991 78.4609 79.9386 79.6152 80.3799V87.5431C79.0381 87.1357 78.427 86.7962 77.748 86.4907C77.069 86.1851 76.3561 85.9475 75.6432 85.7438C74.9303 85.5401 74.2174 85.4043 73.5044 85.3025C72.7915 85.2006 72.1125 85.1667 71.5015 85.1667C70.6188 85.1667 69.838 85.2346 69.1251 85.4043C68.4121 85.5741 67.8011 85.8117 67.2918 86.1172C66.8165 86.4228 66.4092 86.7623 66.1376 87.2036C65.866 87.6449 65.7302 88.0863 65.7302 88.6294C65.7302 89.2066 65.866 89.7158 66.1715 90.1571C66.4771 90.5985 66.9184 91.0398 67.4616 91.4472C68.0048 91.8546 68.6837 92.2619 69.4985 92.6354C70.2793 93.0428 71.1959 93.4162 72.2144 93.8575C73.5723 94.4347 74.8284 95.0457 75.9148 95.6908C77.0011 96.3358 77.9517 97.0827 78.7325 97.8635C79.5134 98.6783 80.1244 99.5949 80.5318 100.647C80.9392 101.7 81.1429 102.888 81.1429 104.28C81.1429 106.215 80.7694 107.81 80.0565 109.1C79.3436 110.391 78.3591 111.443 77.103 112.258C75.8469 113.072 74.421 113.65 72.7576 113.989C71.0941 114.329 69.3627 114.498 67.5295 114.498C65.6623 114.498 63.863 114.329 62.1656 114.023C60.4681 113.718 58.9744 113.208 57.7523 112.597L57.7862 112.733Z" fill="#F7B25E"/>
<path d="M94.5552 102.244V114.058H86.8149V79.7695H98.9346C107.592 79.7695 111.903 83.402 111.903 90.701C111.903 94.1298 110.647 96.9136 108.169 99.0524C105.69 101.191 102.363 102.244 98.2217 102.244H94.5552ZM94.5552 85.6766V96.3704H97.5767C101.684 96.3704 103.755 94.5712 103.755 90.9726C103.755 87.4419 101.684 85.6766 97.5767 85.6766H94.5552Z" fill="#CF4027"/>
<path d="M144.186 114.058H135.767L133.322 106.419H121.135L118.724 114.058H110.339L122.832 79.7695H131.998L144.186 114.058ZM131.557 100.512L127.891 88.9696C127.619 88.1209 127.415 87.0685 127.313 85.8803H127.11C127.042 86.8988 126.838 87.8833 126.499 88.8678L122.764 100.478H131.557V100.512Z" fill="#CF4027"/>
<path d="M174.333 79.735L162.518 114.023H153.76L142.081 79.735H150.399L157.562 103.601C157.935 104.891 158.173 106.011 158.241 107.03H158.377C158.479 105.977 158.75 104.789 159.124 103.499L166.219 79.735H174.299H174.333Z" fill="#CF4027"/>
<path d="M199.015 114.057H178.442V79.735H198.201V86.0494H186.149V93.654H197.386V99.9345H186.149V107.777H199.015V114.057Z" fill="#CF4027"/>
<path d="M86.884 117.452V117.859H199.017V117.011H86.884V117.859V117.452V117.859H199.017V117.011H86.884V117.859V117.452Z" fill="#F8A031"/>
<path fill-rule="evenodd" clip-rule="evenodd" d="M82.7754 188.439H95.1327V197.164C95.1327 201.951 91.2286 205.889 86.4079 205.889H8.73336C3.94659 205.889 0.00854492 201.985 0.00854492 197.164V193.837V188.439V181.038H10.0574V188.439H12.3998C11.7887 187.353 11.4492 186.097 11.4492 184.739V150.62C11.4492 146.445 14.8441 143.016 19.0538 143.016H76.1894C80.3651 143.016 83.7599 146.411 83.7599 150.62V184.739C83.7599 186.097 83.4204 187.353 82.7754 188.439ZM71.8779 188.439V155.068H66.6159V155.95L71.7421 156.629V184.773C71.7421 186.199 71.0631 187.523 69.8749 188.337C69.807 188.371 69.7391 188.439 69.6712 188.473H71.844L71.8779 188.439ZM23.3313 188.439H25.3343C25.2664 188.405 25.1985 188.371 25.1306 188.303C24.1461 187.624 23.501 186.572 23.3313 185.418V188.439ZM23.3313 156.595L28.4236 155.95V155.068H23.3313V156.595ZM47.5367 189.22L44.2437 191.325V187.658L42.0031 187.353C37.8274 186.81 34.127 187.149 30.2229 188.439H37.8613V193.158H57.3479V188.439H64.8166C60.9125 187.149 57.2121 186.81 53.0364 187.353L50.7958 187.658V191.325L47.5027 189.22H47.5367Z" fill="#312F3A"/>
<path fill-rule="evenodd" clip-rule="evenodd" d="M4.01051 192.446H33.8175V194.788C33.8175 196.078 34.8699 197.13 36.1599 197.13H58.9395C60.2295 197.13 61.2819 196.078 61.2819 194.788V192.446H91.0889V197.164C91.0889 199.745 88.984 201.883 86.37 201.883H8.69543C6.11533 201.883 3.97656 199.778 3.97656 197.164V192.446H4.01051Z" fill="#CF4027"/>
<path fill-rule="evenodd" clip-rule="evenodd" d="M27.2642 160.126L30.8288 159.651V181.955C30.8288 182.159 30.8967 182.329 31.0664 182.465C31.2362 182.6 31.4059 182.668 31.6096 182.634C35.5137 182.091 39.1123 182.431 42.5071 183.415C38.1277 182.838 33.4089 182.974 27.7394 185.079C27.6376 185.113 27.5018 185.113 27.4339 185.045C27.3321 184.977 27.2981 184.875 27.2981 184.773V160.16L27.2642 160.126Z" fill="#CF4027"/>
<path fill-rule="evenodd" clip-rule="evenodd" d="M67.7322 160.126L64.1676 159.651V181.955C64.1676 182.159 64.0997 182.329 63.93 182.465C63.7602 182.6 63.5905 182.668 63.3868 182.634C59.4827 182.091 55.8841 182.431 52.4893 183.415C56.8686 182.838 61.5875 182.974 67.2569 185.079C67.3588 185.113 67.4946 185.113 67.5625 185.045C67.6643 184.977 67.6983 184.875 67.6983 184.773V160.16L67.7322 160.126Z" fill="#CF4027"/>
<path fill-rule="evenodd" clip-rule="evenodd" d="M32.3911 156.154C37.2797 155.373 42.1004 155.781 46.7853 159.277V184.026C41.9986 180.937 37.2118 180.224 32.3911 181.072V156.188V156.154Z" fill="#CF4027"/>
<path fill-rule="evenodd" clip-rule="evenodd" d="M62.6047 156.154C57.7161 155.373 52.8954 155.781 48.2104 159.277V184.026C52.9972 180.937 57.784 180.224 62.6047 181.072V156.188V156.154Z" fill="#CF4027"/>
<path fill-rule="evenodd" clip-rule="evenodd" d="M76.1526 147.056H19.017C17.048 147.056 15.4185 148.685 15.4185 150.654V184.773C15.4185 186.742 17.048 188.371 19.017 188.371H19.3226V166.339V152.487C19.3226 151.741 19.9336 151.13 20.6805 151.13H74.4891C75.236 151.13 75.8471 151.741 75.8471 152.487V166.339V188.371H76.1526C78.1217 188.371 79.7512 186.742 79.7512 184.773V150.654C79.7512 148.685 78.1217 147.056 76.1526 147.056Z" fill="#CF4027"/>
</svg>
